<?xml version="1.0" encoding="utf-8"?>
<svg xmlns="http://www.w3.org/2000/svg" version="1.1" width="1000" height="800">

<line x1="366.667" y1="183.333" x2="366.667" y2="366.667" stroke="purple" />
<text x="341.667" y="265" fill="black" >N</text>
<text x="356.667" y="265" fill="black" >0</text>
<text x="376.667" y="265" fill="black" >1</text>
<line x1="183.333" y1="366.667" x2="366.667" y2="366.667" stroke="purple" />
<text x="250" y="356.667" fill="black" >N</text>
<text x="265" y="356.667" fill="black" >1</text>
<text x="285" y="356.667" fill="black" >1</text>
<line x1="366.667" y1="366.667" x2="550" y2="366.667" stroke="purple" />
<text x="433.333" y="356.667" fill="black" >N</text>
<text x="448.333" y="356.667" fill="black" >2</text>
<text x="468.333" y="356.667" fill="black" >1</text>
<line x1="366.667" y1="366.667" x2="366.667" y2="550" stroke="purple" />
<text x="341.667" y="448.333" fill="black" >N</text>
<text x="356.667" y="448.333" fill="black" >3</text>
<text x="376.667" y="448.333" fill="black" >1</text>
<circle cx="366.667" cy="183.333" r="5" fill="purple" />
<text x="366.667" y="173.333" fill="black" >A</text>
<text x="366.667" y="193.333" fill="black" >0</text>
<text x="366.667" y="163.333" fill="black" >0</text>
<circle cx="183.333" cy="366.667" r="5" fill="purple" />
<text x="183.333" y="356.667" fill="black" >B</text>
<text x="183.333" y="376.667" fill="black" >0</text>
<text x="183.333" y="346.667" fill="black" >1</text>
<circle cx="366.667" cy="366.667" r="5" fill="purple" />
<text x="366.667" y="356.667" fill="black" >C</text>
<text x="366.667" y="376.667" fill="black" >0</text>
<text x="366.667" y="346.667" fill="black" >2</text>
<circle cx="550" cy="366.667" r="5" fill="purple" />
<text x="550" y="356.667" fill="black" >D</text>
<text x="550" y="376.667" fill="black" >0</text>
<text x="550" y="346.667" fill="black" >3</text>
<circle cx="366.667" cy="550" r="5" fill="purple" />
<text x="366.667" y="540" fill="black" >E</text>
<text x="366.667" y="560" fill="black" >0</text>
<text x="366.667" y="530" fill="black" >4</text>


</svg>
