<?xml version="1.0" encoding="utf-8"?>
<svg xmlns="http://www.w3.org/2000/svg" version="1.1" width="1000" height="800">

<line x1="334.056" y1="143.167" x2="145.792" y2="268.438" stroke="black" />
<text x="214.924" y="195.803" fill="black" >N</text>
<text x="229.924" y="195.803" fill="black" >0</text>
<text x="249.924" y="195.803" fill="black" >1</text>
<line x1="334.056" y1="143.167" x2="238.612" y2="315.683" stroke="black" />
<text x="261.334" y="219.425" fill="black" >N</text>
<text x="276.334" y="219.425" fill="black" >1</text>
<text x="296.334" y="219.425" fill="black" >1</text>
<line x1="145.792" y1="268.438" x2="238.612" y2="315.683" stroke="black" />
<text x="167.202" y="282.061" fill="black" >N</text>
<text x="182.202" y="282.061" fill="black" >2</text>
<text x="202.202" y="282.061" fill="black" >1</text>
<line x1="238.612" y1="315.683" x2="165.358" y2="343.362" stroke="black" />
<text x="176.985" y="319.523" fill="black" >N</text>
<text x="191.985" y="319.523" fill="black" >3</text>
<text x="211.985" y="319.523" fill="black" >1</text>
<line x1="238.612" y1="315.683" x2="187.31" y2="439.284" stroke="black" />
<text x="187.961" y="367.484" fill="black" >N</text>
<text x="202.961" y="367.484" fill="black" >4</text>
<text x="222.961" y="367.484" fill="black" >1</text>
<line x1="165.358" y1="343.362" x2="187.31" y2="439.284" stroke="black" />
<text x="151.334" y="381.323" fill="black" >N</text>
<text x="166.334" y="381.323" fill="black" >5</text>
<text x="186.334" y="381.323" fill="black" >1</text>
<line x1="187.31" y1="439.284" x2="287.527" y2="529.479" stroke="black" />
<text x="212.419" y="474.382" fill="black" >N</text>
<text x="227.419" y="474.382" fill="black" >6</text>
<text x="247.419" y="474.382" fill="black" >1</text>
<line x1="187.31" y1="439.284" x2="193.514" y2="547.137" stroke="black" />
<text x="165.412" y="483.21" fill="black" >N</text>
<text x="180.412" y="483.21" fill="black" >7</text>
<text x="200.412" y="483.21" fill="black" >1</text>
<line x1="287.527" y1="529.479" x2="193.514" y2="547.137" stroke="black" />
<text x="215.521" y="528.308" fill="black" >N</text>
<text x="230.521" y="528.308" fill="black" >8</text>
<text x="250.521" y="528.308" fill="black" >1</text>
<line x1="287.527" y1="529.479" x2="492.733" y2="550" stroke="black" />
<text x="365.13" y="529.74" fill="black" >N</text>
<text x="380.13" y="529.74" fill="black" >9</text>
<text x="400.13" y="529.74" fill="black" >1</text>
<line x1="492.733" y1="550" x2="582.451" y2="517.072" stroke="black" />
<text x="512.592" y="523.536" fill="black" >N</text>
<text x="527.592" y="523.536" fill="black" >10</text>
<text x="547.592" y="523.536" fill="black" >1</text>
<line x1="287.527" y1="529.479" x2="456.464" y2="375.336" stroke="black" />
<text x="346.996" y="442.408" fill="black" >N</text>
<text x="361.996" y="442.408" fill="black" >11</text>
<text x="381.996" y="442.408" fill="black" >1</text>
<line x1="492.733" y1="550" x2="456.464" y2="375.336" stroke="black" />
<text x="449.599" y="452.668" fill="black" >N</text>
<text x="464.599" y="452.668" fill="black" >12</text>
<text x="484.599" y="452.668" fill="black" >1</text>
<line x1="456.464" y1="375.336" x2="589.371" y2="173.471" stroke="black" />
<text x="497.918" y="264.403" fill="black" >N</text>
<text x="512.918" y="264.403" fill="black" >13</text>
<text x="532.918" y="264.403" fill="black" >1</text>
<line x1="589.371" y1="173.471" x2="369.848" y2="35.0759" stroke="black" />
<text x="454.61" y="94.2733" fill="black" >N</text>
<text x="469.61" y="94.2733" fill="black" >14</text>
<text x="489.61" y="94.2733" fill="black" >1</text>
<line x1="334.056" y1="143.167" x2="456.464" y2="375.336" stroke="black" />
<text x="370.26" y="249.252" fill="black" >N</text>
<text x="385.26" y="249.252" fill="black" >15</text>
<text x="405.26" y="249.252" fill="black" >1</text>
<line x1="334.056" y1="143.167" x2="369.848" y2="35.0759" stroke="black" />
<text x="326.952" y="79.1215" fill="black" >N</text>
<text x="341.952" y="79.1215" fill="black" >16</text>
<text x="361.952" y="79.1215" fill="black" >1</text>
<circle cx="334.056" cy="143.167" r="5" fill="purple" />
<text x="334.056" y="133.167" fill="black" >Paris</text>
<text x="334.056" y="153.167" fill="black" >0</text>
<text x="324.056" y="133.167" fill="black" >0</text>
<circle cx="369.848" cy="35.0759" r="5" fill="purple" />
<text x="369.848" y="25.0759" fill="black" >Lille</text>
<text x="369.848" y="45.0759" fill="black" >0</text>
<text x="359.848" y="25.0759" fill="black" >1</text>
<circle cx="145.792" cy="268.438" r="5" fill="purple" />
<text x="145.792" y="258.438" fill="black" >Nante</text>
<text x="145.792" y="278.438" fill="black" >0</text>
<text x="135.792" y="258.438" fill="black" >2</text>
<circle cx="589.371" cy="173.471" r="5" fill="purple" />
<text x="589.371" y="163.471" fill="black" >Strasbourg</text>
<text x="589.371" y="183.471" fill="black" >0</text>
<text x="579.371" y="163.471" fill="black" >3</text>
<circle cx="238.612" cy="315.683" r="5" fill="purple" />
<text x="238.612" y="305.683" fill="black" >Poitier</text>
<text x="238.612" y="325.683" fill="black" >0</text>
<text x="228.612" y="305.683" fill="black" >4</text>
<circle cx="165.358" cy="343.362" r="5" fill="purple" />
<text x="165.358" y="333.362" fill="black" >LaRochelle</text>
<text x="165.358" y="353.362" fill="black" >0</text>
<text x="155.358" y="333.362" fill="black" >5</text>
<circle cx="187.31" cy="439.284" r="5" fill="purple" />
<text x="187.31" y="429.284" fill="black" >Bordeaux</text>
<text x="187.31" y="449.284" fill="black" >0</text>
<text x="177.31" y="429.284" fill="black" >6</text>
<circle cx="287.527" cy="529.479" r="5" fill="purple" />
<text x="287.527" y="519.479" fill="black" >Toulouse</text>
<text x="287.527" y="539.479" fill="black" >0</text>
<text x="277.527" y="519.479" fill="black" >7</text>
<circle cx="193.514" cy="547.137" r="5" fill="purple" />
<text x="193.514" y="537.137" fill="black" >Pau</text>
<text x="193.514" y="557.137" fill="black" >0</text>
<text x="183.514" y="537.137" fill="black" >8</text>
<circle cx="492.733" cy="550" r="5" fill="purple" />
<text x="492.733" y="540" fill="black" >Marseille</text>
<text x="492.733" y="560" fill="black" >0</text>
<text x="482.733" y="540" fill="black" >9</text>
<circle cx="582.451" cy="517.072" r="5" fill="purple" />
<text x="582.451" y="507.072" fill="black" >Nice</text>
<text x="582.451" y="527.072" fill="black" >0</text>
<text x="572.451" y="507.072" fill="black" >10</text>
<circle cx="456.464" cy="375.336" r="5" fill="purple" />
<text x="456.464" y="365.336" fill="black" >Lyon</text>
<text x="456.464" y="385.336" fill="black" >0</text>
<text x="446.464" y="365.336" fill="black" >11</text>


</svg>
