<?xml version="1.0" encoding="utf-8"?>
<svg xmlns="http://www.w3.org/2000/svg" version="1.1" width="1000" height="800">

<line x1="275" y1="137.5" x2="137.5" y2="412.5" stroke="purple" />
<polygon points=" 139.736,408.028 138.394,401.767 145.55,405.345" style="fill:purple" />
<text x="181.25" y="265" fill="black" >N</text>
<text x="196.25" y="265" fill="black" >0</text>
<text x="216.25" y="265" fill="black" >1</text>
<line x1="275" y1="137.5" x2="275" y2="275" stroke="purple" />
<polygon points=" 275,270 271,265 279,265" style="fill:purple" />
<text x="250" y="196.25" fill="black" >N</text>
<text x="265" y="196.25" fill="black" >1</text>
<text x="285" y="196.25" fill="black" >1</text>
<line x1="137.5" y1="412.5" x2="275" y2="275" stroke="purple" />
<polygon points=" 271.464,278.536 265.1,279.242 270.758,284.9" style="fill:purple" />
<text x="181.25" y="333.75" fill="black" >N</text>
<text x="196.25" y="333.75" fill="black" >2</text>
<text x="216.25" y="333.75" fill="black" >1</text>
<line x1="137.5" y1="412.5" x2="275" y2="550" stroke="purple" />
<polygon points=" 271.464,546.464 265.099,545.759 270.759,540.099" style="fill:purple" />
<text x="181.25" y="471.25" fill="black" >N</text>
<text x="196.25" y="471.25" fill="black" >3</text>
<text x="216.25" y="471.25" fill="black" >1</text>
<line x1="137.5" y1="412.5" x2="412.5" y2="412.5" stroke="purple" />
<polygon points=" 407.5,412.5 402.5,408.5 402.5,416.5" style="fill:purple" />
<text x="250" y="402.5" fill="black" >N</text>
<text x="265" y="402.5" fill="black" >4</text>
<text x="285" y="402.5" fill="black" >1</text>
<line x1="412.5" y1="412.5" x2="275" y2="550" stroke="purple" />
<polygon points=" 278.536,546.464 279.243,540.101 284.899,545.757" style="fill:purple" />
<text x="318.75" y="471.25" fill="black" >N</text>
<text x="333.75" y="471.25" fill="black" >5</text>
<text x="353.75" y="471.25" fill="black" >1</text>
<line x1="412.5" y1="412.5" x2="275" y2="275" stroke="purple" />
<polygon points=" 278.536,278.536 279.243,284.899 284.899,279.243" style="fill:purple" />
<text x="318.75" y="333.75" fill="black" >N</text>
<text x="333.75" y="333.75" fill="black" >6</text>
<text x="353.75" y="333.75" fill="black" >1</text>
<line x1="275" y1="137.5" x2="412.5" y2="412.5" stroke="purple" />
<polygon points=" 410.264,408.028 404.451,405.344 411.605,401.767" style="fill:purple" />
<text x="318.75" y="265" fill="black" >N</text>
<text x="333.75" y="265" fill="black" >7</text>
<text x="353.75" y="265" fill="black" >1</text>
<circle cx="275" cy="137.5" r="5" fill="purple" />
<text x="275" y="127.5" fill="black" >1</text>
<text x="275" y="147.5" fill="black" >0</text>
<text x="275" y="117.5" fill="black" >0</text>
<circle cx="275" cy="275" r="5" fill="purple" />
<text x="275" y="265" fill="black" >2</text>
<text x="275" y="285" fill="black" >0</text>
<text x="275" y="255" fill="black" >1</text>
<circle cx="137.5" cy="412.5" r="5" fill="purple" />
<text x="137.5" y="402.5" fill="black" >3</text>
<text x="137.5" y="422.5" fill="black" >0</text>
<text x="137.5" y="392.5" fill="black" >2</text>
<circle cx="412.5" cy="412.5" r="5" fill="purple" />
<text x="412.5" y="402.5" fill="black" >4</text>
<text x="412.5" y="422.5" fill="black" >0</text>
<text x="412.5" y="392.5" fill="black" >3</text>
<circle cx="275" cy="550" r="5" fill="purple" />
<text x="275" y="540" fill="black" >5</text>
<text x="275" y="560" fill="black" >0</text>
<text x="275" y="530" fill="black" >4</text>


</svg>
