<?xml version="1.0" encoding="utf-8"?>
<svg xmlns="http://www.w3.org/2000/svg" version="1.1" width="1000" height="800">

<line x1="271.429" y1="135.714" x2="407.143" y2="271.429" stroke="black" />
<text x="314.286" y="193.571" fill="black" >N</text>
<text x="329.286" y="193.571" fill="black" >0</text>
<text x="349.286" y="193.571" fill="black" >1</text>
<line x1="814.286" y1="135.714" x2="678.571" y2="271.429" stroke="black" />
<text x="721.429" y="193.571" fill="black" >N</text>
<text x="736.429" y="193.571" fill="black" >1</text>
<text x="756.429" y="193.571" fill="black" >1</text>
<line x1="135.714" y1="271.429" x2="407.143" y2="271.429" stroke="black" />
<text x="246.429" y="261.429" fill="black" >N</text>
<text x="261.429" y="261.429" fill="black" >2</text>
<text x="281.429" y="261.429" fill="black" >1</text>
<line x1="542.857" y1="271.429" x2="678.571" y2="271.429" stroke="black" />
<text x="585.714" y="261.429" fill="black" >N</text>
<text x="600.714" y="261.429" fill="black" >4</text>
<text x="620.714" y="261.429" fill="black" >1</text>
<line x1="678.571" y1="271.429" x2="950" y2="271.429" stroke="black" />
<text x="789.286" y="261.429" fill="black" >N</text>
<text x="804.286" y="261.429" fill="black" >5</text>
<text x="824.286" y="261.429" fill="black" >1</text>
<line x1="271.429" y1="407.143" x2="407.143" y2="271.429" stroke="black" />
<text x="314.286" y="329.286" fill="black" >N</text>
<text x="329.286" y="329.286" fill="black" >6</text>
<text x="349.286" y="329.286" fill="black" >1</text>
<line x1="814.286" y1="407.143" x2="678.571" y2="271.429" stroke="black" />
<text x="721.429" y="329.286" fill="black" >N</text>
<text x="736.429" y="329.286" fill="black" >7</text>
<text x="756.429" y="329.286" fill="black" >1</text>
<line x1="407.143" y1="271.429" x2="271.429" y2="135.714" stroke="black" />
<text x="314.286" y="193.571" fill="black" >N</text>
<text x="329.286" y="193.571" fill="black" >8</text>
<text x="349.286" y="193.571" fill="black" >1</text>
<line x1="678.571" y1="271.429" x2="814.286" y2="135.714" stroke="black" />
<text x="721.429" y="193.571" fill="black" >N</text>
<text x="736.429" y="193.571" fill="black" >9</text>
<text x="756.429" y="193.571" fill="black" >1</text>
<line x1="407.143" y1="271.429" x2="135.714" y2="271.429" stroke="black" />
<text x="246.429" y="261.429" fill="black" >N</text>
<text x="261.429" y="261.429" fill="black" >10</text>
<text x="281.429" y="261.429" fill="black" >1</text>
<line x1="542.857" y1="271.429" x2="407.143" y2="271.429" stroke="black" />
<text x="450" y="261.429" fill="black" >N</text>
<text x="465" y="261.429" fill="black" >11</text>
<text x="485" y="261.429" fill="black" >1</text>
<line x1="678.571" y1="271.429" x2="542.857" y2="271.429" stroke="black" />
<text x="585.714" y="261.429" fill="black" >N</text>
<text x="600.714" y="261.429" fill="black" >12</text>
<text x="620.714" y="261.429" fill="black" >1</text>
<line x1="950" y1="271.429" x2="678.571" y2="271.429" stroke="black" />
<text x="789.286" y="261.429" fill="black" >N</text>
<text x="804.286" y="261.429" fill="black" >13</text>
<text x="824.286" y="261.429" fill="black" >1</text>
<line x1="407.143" y1="271.429" x2="271.429" y2="407.143" stroke="black" />
<text x="314.286" y="329.286" fill="black" >N</text>
<text x="329.286" y="329.286" fill="black" >14</text>
<text x="349.286" y="329.286" fill="black" >1</text>
<line x1="678.571" y1="271.429" x2="814.286" y2="407.143" stroke="black" />
<text x="721.429" y="329.286" fill="black" >N</text>
<text x="736.429" y="329.286" fill="black" >15</text>
<text x="756.429" y="329.286" fill="black" >1</text>
<circle cx="271.429" cy="135.714" r="5" fill="purple" />
<text x="271.429" y="125.714" fill="black" >A</text>
<text x="271.429" y="145.714" fill="black" >0</text>
<text x="271.429" y="115.714" fill="black" >0</text>
<circle cx="814.286" cy="135.714" r="5" fill="purple" />
<text x="814.286" y="125.714" fill="black" >B</text>
<text x="814.286" y="145.714" fill="black" >0</text>
<text x="814.286" y="115.714" fill="black" >1</text>
<circle cx="135.714" cy="271.429" r="5" fill="purple" />
<text x="135.714" y="261.429" fill="black" >C</text>
<text x="135.714" y="281.429" fill="black" >0</text>
<text x="135.714" y="251.429" fill="black" >2</text>
<circle cx="407.143" cy="271.429" r="5" fill="purple" />
<text x="407.143" y="261.429" fill="black" >D</text>
<text x="407.143" y="281.429" fill="black" >0</text>
<text x="407.143" y="251.429" fill="black" >3</text>
<circle cx="542.857" cy="271.429" r="5" fill="purple" />
<text x="542.857" y="261.429" fill="black" >E</text>
<text x="542.857" y="281.429" fill="black" >0</text>
<text x="542.857" y="251.429" fill="black" >4</text>
<circle cx="678.571" cy="271.429" r="5" fill="purple" />
<text x="678.571" y="261.429" fill="black" >F</text>
<text x="678.571" y="281.429" fill="black" >0</text>
<text x="678.571" y="251.429" fill="black" >5</text>
<circle cx="950" cy="271.429" r="5" fill="purple" />
<text x="950" y="261.429" fill="black" >G</text>
<text x="950" y="281.429" fill="black" >0</text>
<text x="950" y="251.429" fill="black" >6</text>
<circle cx="271.429" cy="407.143" r="5" fill="purple" />
<text x="271.429" y="397.143" fill="black" >H</text>
<text x="271.429" y="417.143" fill="black" >0</text>
<text x="271.429" y="387.143" fill="black" >7</text>
<circle cx="814.286" cy="407.143" r="5" fill="purple" />
<text x="814.286" y="397.143" fill="black" >I</text>
<text x="814.286" y="417.143" fill="black" >0</text>
<text x="814.286" y="387.143" fill="black" >8</text>


</svg>
