<?xml version="1.0" encoding="utf-8"?>
<svg xmlns="http://www.w3.org/2000/svg" version="1.1" width="1000" height="800">

<line x1="330" y1="110" x2="440" y2="220" stroke="purple" />
<text x="360" y="155" fill="black" >N</text>
<text x="375" y="155" fill="black" >0</text>
<text x="395" y="155" fill="black" >1</text>
<line x1="440" y1="220" x2="330" y2="330" stroke="purple" />
<text x="360" y="265" fill="black" >N</text>
<text x="375" y="265" fill="black" >1</text>
<text x="395" y="265" fill="black" >1</text>
<line x1="330" y1="330" x2="220" y2="440" stroke="purple" />
<text x="250" y="375" fill="black" >N</text>
<text x="265" y="375" fill="black" >2</text>
<text x="285" y="375" fill="black" >1</text>
<line x1="330" y1="330" x2="440" y2="440" stroke="purple" />
<text x="360" y="375" fill="black" >N</text>
<text x="375" y="375" fill="black" >3</text>
<text x="395" y="375" fill="black" >1</text>
<line x1="440" y1="220" x2="550" y2="550" stroke="purple" />
<text x="470" y="375" fill="black" >N</text>
<text x="485" y="375" fill="black" >4</text>
<text x="505" y="375" fill="black" >1</text>
<line x1="220" y1="440" x2="330" y2="440" stroke="purple" />
<text x="250" y="430" fill="black" >N</text>
<text x="265" y="430" fill="black" >5</text>
<text x="285" y="430" fill="black" >1</text>
<line x1="330" y1="440" x2="440" y2="440" stroke="purple" />
<text x="360" y="430" fill="black" >N</text>
<text x="375" y="430" fill="black" >6</text>
<text x="395" y="430" fill="black" >1</text>
<line x1="440" y1="440" x2="550" y2="550" stroke="purple" />
<text x="470" y="485" fill="black" >N</text>
<text x="485" y="485" fill="black" >7</text>
<text x="505" y="485" fill="black" >1</text>
<circle cx="330" cy="110" r="5" fill="purple" />
<text x="330" y="100" fill="black" >A</text>
<text x="330" y="120" fill="black" >0</text>
<text x="330" y="90" fill="black" >0</text>
<circle cx="220" cy="220" r="5" fill="purple" />
<text x="220" y="210" fill="black" >B</text>
<text x="220" y="230" fill="black" >0</text>
<text x="220" y="200" fill="black" >1</text>
<circle cx="440" cy="220" r="5" fill="purple" />
<text x="440" y="210" fill="black" >C</text>
<text x="440" y="230" fill="black" >0</text>
<text x="440" y="200" fill="black" >2</text>
<circle cx="330" cy="330" r="5" fill="purple" />
<text x="330" y="320" fill="black" >D</text>
<text x="330" y="340" fill="black" >0</text>
<text x="330" y="310" fill="black" >3</text>
<circle cx="220" cy="440" r="5" fill="purple" />
<text x="220" y="430" fill="black" >E</text>
<text x="220" y="450" fill="black" >0</text>
<text x="220" y="420" fill="black" >4</text>
<circle cx="330" cy="440" r="5" fill="purple" />
<text x="330" y="430" fill="black" >F</text>
<text x="330" y="450" fill="black" >0</text>
<text x="330" y="420" fill="black" >5</text>
<circle cx="440" cy="440" r="5" fill="purple" />
<text x="440" y="430" fill="black" >G</text>
<text x="440" y="450" fill="black" >0</text>
<text x="440" y="420" fill="black" >6</text>
<circle cx="550" cy="550" r="5" fill="purple" />
<text x="550" y="540" fill="black" >I</text>
<text x="550" y="560" fill="black" >0</text>
<text x="550" y="530" fill="black" >7</text>


</svg>
