<?xml version="1.0" encoding="utf-8"?>
<svg xmlns="http://www.w3.org/2000/svg" version="1.1" width="1000" height="800">

<line x1="300" y1="100" x2="200" y2="200" stroke="black" />
<line x1="300" y1="100" x2="400" y2="200" stroke="black" />
<line x1="200" y1="200" x2="300" y2="300" stroke="black" />
<line x1="400" y1="200" x2="300" y2="300" stroke="black" />
<line x1="300" y1="300" x2="200" y2="400" stroke="black" />
<line x1="300" y1="300" x2="400" y2="400" stroke="black" />
<line x1="200" y1="200" x2="100" y2="500" stroke="black" />
<line x1="400" y1="200" x2="500" y2="500" stroke="black" />
<line x1="200" y1="400" x2="300" y2="400" stroke="black" />
<line x1="300" y1="400" x2="400" y2="400" stroke="black" />
<line x1="400" y1="400" x2="500" y2="500" stroke="black" />
<line x1="200" y1="400" x2="100" y2="500" stroke="black" />
<line x1="100" y1="500" x2="500" y2="500" stroke="black" />
<circle cx="300" cy="100" r="10" fill="red" />
<circle cx="200" cy="200" r="10" fill="red" />
<circle cx="400" cy="200" r="10" fill="red" />
<circle cx="300" cy="300" r="10" fill="red" />
<circle cx="200" cy="400" r="10" fill="red" />
<circle cx="300" cy="400" r="10" fill="red" />
<circle cx="400" cy="400" r="10" fill="red" />
<circle cx="100" cy="500" r="10" fill="red" />
<circle cx="500" cy="500" r="10" fill="red" />


</svg>
